<mxfile host="app.diagrams.net" agent="Mozilla/5.0 (Windows NT 10.0; Win64; x64) AppleWebKit/537.36 (KHTML, like Gecko) Chrome/135.0.0.0 Safari/537.36" version="26.2.14">
  <diagram name="Page-1" id="uyowkbBAz0GNII6ZAF2W">
    <mxGraphModel dx="1473" dy="795" grid="1" gridSize="10" guides="1" tooltips="1" connect="1" arrows="1" fold="1" page="1" pageScale="1" pageWidth="850" pageHeight="1100" math="0" shadow="0">
      <root>
        <mxCell id="0" />
        <mxCell id="1" parent="0" />
        <mxCell id="WQGCRYm0WPpWooz6dVTd-1" value="A buffer" style="rounded=0;whiteSpace=wrap;html=1;fillColor=#dae8fc;strokeColor=#6c8ebf;" vertex="1" parent="1">
          <mxGeometry x="80" y="360" width="120" height="40" as="geometry" />
        </mxCell>
        <mxCell id="WQGCRYm0WPpWooz6dVTd-2" value="B buffer" style="rounded=0;whiteSpace=wrap;html=1;fillColor=#dae8fc;strokeColor=#6c8ebf;" vertex="1" parent="1">
          <mxGeometry x="280" y="360" width="120" height="40" as="geometry" />
        </mxCell>
        <mxCell id="WQGCRYm0WPpWooz6dVTd-3" value="Reduce Engine" style="rounded=0;whiteSpace=wrap;html=1;fillColor=#e1d5e7;strokeColor=#9673a6;" vertex="1" parent="1">
          <mxGeometry x="280" y="240" width="120" height="40" as="geometry" />
        </mxCell>
        <mxCell id="WQGCRYm0WPpWooz6dVTd-4" value="C buffer" style="rounded=0;whiteSpace=wrap;html=1;fillColor=#dae8fc;strokeColor=#6c8ebf;" vertex="1" parent="1">
          <mxGeometry x="480" y="360" width="120" height="40" as="geometry" />
        </mxCell>
        <mxCell id="WQGCRYm0WPpWooz6dVTd-5" value="" style="endArrow=classic;html=1;rounded=0;exitX=0.5;exitY=0;exitDx=0;exitDy=0;entryX=0.25;entryY=1;entryDx=0;entryDy=0;" edge="1" parent="1" source="WQGCRYm0WPpWooz6dVTd-1" target="WQGCRYm0WPpWooz6dVTd-3">
          <mxGeometry width="50" height="50" relative="1" as="geometry">
            <mxPoint x="350" y="290" as="sourcePoint" />
            <mxPoint x="400" y="240" as="targetPoint" />
          </mxGeometry>
        </mxCell>
        <mxCell id="WQGCRYm0WPpWooz6dVTd-6" value="" style="endArrow=classic;html=1;rounded=0;exitX=0.5;exitY=0;exitDx=0;exitDy=0;entryX=0.5;entryY=1;entryDx=0;entryDy=0;" edge="1" parent="1" source="WQGCRYm0WPpWooz6dVTd-2" target="WQGCRYm0WPpWooz6dVTd-3">
          <mxGeometry width="50" height="50" relative="1" as="geometry">
            <mxPoint x="150" y="370" as="sourcePoint" />
            <mxPoint x="320" y="290" as="targetPoint" />
          </mxGeometry>
        </mxCell>
        <mxCell id="WQGCRYm0WPpWooz6dVTd-7" value="" style="endArrow=classic;html=1;rounded=0;exitX=0.75;exitY=1;exitDx=0;exitDy=0;entryX=0.5;entryY=0;entryDx=0;entryDy=0;" edge="1" parent="1" source="WQGCRYm0WPpWooz6dVTd-3" target="WQGCRYm0WPpWooz6dVTd-4">
          <mxGeometry width="50" height="50" relative="1" as="geometry">
            <mxPoint x="351" y="373" as="sourcePoint" />
            <mxPoint x="350" y="290" as="targetPoint" />
          </mxGeometry>
        </mxCell>
        <mxCell id="WQGCRYm0WPpWooz6dVTd-8" value="LINK" style="rounded=0;whiteSpace=wrap;html=1;fillColor=#ffe6cc;strokeColor=#d79b00;" vertex="1" parent="1">
          <mxGeometry x="380" y="480" width="120" height="40" as="geometry" />
        </mxCell>
        <mxCell id="WQGCRYm0WPpWooz6dVTd-9" value="HBM" style="rounded=0;whiteSpace=wrap;html=1;fillColor=#f8cecc;strokeColor=#b85450;" vertex="1" parent="1">
          <mxGeometry x="180" y="480" width="120" height="40" as="geometry" />
        </mxCell>
        <mxCell id="WQGCRYm0WPpWooz6dVTd-10" value="" style="endArrow=classic;html=1;rounded=0;exitX=0.25;exitY=0;exitDx=0;exitDy=0;entryX=0.5;entryY=1;entryDx=0;entryDy=0;" edge="1" parent="1" source="WQGCRYm0WPpWooz6dVTd-8" target="WQGCRYm0WPpWooz6dVTd-1">
          <mxGeometry width="50" height="50" relative="1" as="geometry">
            <mxPoint x="150" y="370" as="sourcePoint" />
            <mxPoint x="320" y="290" as="targetPoint" />
          </mxGeometry>
        </mxCell>
        <mxCell id="WQGCRYm0WPpWooz6dVTd-11" value="" style="endArrow=classic;html=1;rounded=0;exitX=0.5;exitY=0;exitDx=0;exitDy=0;entryX=0.5;entryY=1;entryDx=0;entryDy=0;" edge="1" parent="1" source="WQGCRYm0WPpWooz6dVTd-9" target="WQGCRYm0WPpWooz6dVTd-2">
          <mxGeometry width="50" height="50" relative="1" as="geometry">
            <mxPoint x="420" y="490" as="sourcePoint" />
            <mxPoint x="150" y="410" as="targetPoint" />
          </mxGeometry>
        </mxCell>
        <mxCell id="WQGCRYm0WPpWooz6dVTd-12" value="" style="endArrow=classic;html=1;rounded=0;exitX=0.5;exitY=1;exitDx=0;exitDy=0;entryX=0.5;entryY=0;entryDx=0;entryDy=0;" edge="1" parent="1" source="WQGCRYm0WPpWooz6dVTd-4" target="WQGCRYm0WPpWooz6dVTd-8">
          <mxGeometry width="50" height="50" relative="1" as="geometry">
            <mxPoint x="250" y="490" as="sourcePoint" />
            <mxPoint x="350" y="410" as="targetPoint" />
          </mxGeometry>
        </mxCell>
        <mxCell id="WQGCRYm0WPpWooz6dVTd-13" value="A buffer" style="rounded=0;whiteSpace=wrap;html=1;fillColor=#dae8fc;strokeColor=#6c8ebf;" vertex="1" parent="1">
          <mxGeometry x="720" y="360" width="120" height="40" as="geometry" />
        </mxCell>
        <mxCell id="WQGCRYm0WPpWooz6dVTd-14" value="B buffer" style="rounded=0;whiteSpace=wrap;html=1;fillColor=#dae8fc;strokeColor=#6c8ebf;" vertex="1" parent="1">
          <mxGeometry x="920" y="360" width="120" height="40" as="geometry" />
        </mxCell>
        <mxCell id="WQGCRYm0WPpWooz6dVTd-15" value="Reduce Engine" style="rounded=0;whiteSpace=wrap;html=1;fillColor=#e1d5e7;strokeColor=#9673a6;" vertex="1" parent="1">
          <mxGeometry x="920" y="240" width="120" height="40" as="geometry" />
        </mxCell>
        <mxCell id="WQGCRYm0WPpWooz6dVTd-17" value="" style="endArrow=classic;html=1;rounded=0;exitX=0.5;exitY=0;exitDx=0;exitDy=0;entryX=0.25;entryY=1;entryDx=0;entryDy=0;" edge="1" parent="1" source="WQGCRYm0WPpWooz6dVTd-13" target="WQGCRYm0WPpWooz6dVTd-15">
          <mxGeometry width="50" height="50" relative="1" as="geometry">
            <mxPoint x="990" y="290" as="sourcePoint" />
            <mxPoint x="1040" y="240" as="targetPoint" />
          </mxGeometry>
        </mxCell>
        <mxCell id="WQGCRYm0WPpWooz6dVTd-18" value="" style="endArrow=classic;html=1;rounded=0;exitX=0.5;exitY=0;exitDx=0;exitDy=0;entryX=0.5;entryY=1;entryDx=0;entryDy=0;" edge="1" parent="1" source="WQGCRYm0WPpWooz6dVTd-14" target="WQGCRYm0WPpWooz6dVTd-15">
          <mxGeometry width="50" height="50" relative="1" as="geometry">
            <mxPoint x="790" y="370" as="sourcePoint" />
            <mxPoint x="960" y="290" as="targetPoint" />
          </mxGeometry>
        </mxCell>
        <mxCell id="WQGCRYm0WPpWooz6dVTd-19" value="" style="endArrow=classic;html=1;rounded=0;exitX=0.75;exitY=1;exitDx=0;exitDy=0;entryX=0.75;entryY=0;entryDx=0;entryDy=0;" edge="1" parent="1" source="WQGCRYm0WPpWooz6dVTd-15" target="WQGCRYm0WPpWooz6dVTd-14">
          <mxGeometry width="50" height="50" relative="1" as="geometry">
            <mxPoint x="991" y="373" as="sourcePoint" />
            <mxPoint x="990" y="290" as="targetPoint" />
          </mxGeometry>
        </mxCell>
        <mxCell id="WQGCRYm0WPpWooz6dVTd-20" value="LINK" style="rounded=0;whiteSpace=wrap;html=1;fillColor=#ffe6cc;strokeColor=#d79b00;" vertex="1" parent="1">
          <mxGeometry x="1020" y="480" width="120" height="40" as="geometry" />
        </mxCell>
        <mxCell id="WQGCRYm0WPpWooz6dVTd-21" value="HBM" style="rounded=0;whiteSpace=wrap;html=1;fillColor=#f8cecc;strokeColor=#b85450;" vertex="1" parent="1">
          <mxGeometry x="820" y="480" width="120" height="40" as="geometry" />
        </mxCell>
        <mxCell id="WQGCRYm0WPpWooz6dVTd-22" value="" style="endArrow=classic;html=1;rounded=0;exitX=0.25;exitY=0;exitDx=0;exitDy=0;entryX=0.5;entryY=1;entryDx=0;entryDy=0;" edge="1" parent="1" source="WQGCRYm0WPpWooz6dVTd-20" target="WQGCRYm0WPpWooz6dVTd-13">
          <mxGeometry width="50" height="50" relative="1" as="geometry">
            <mxPoint x="790" y="370" as="sourcePoint" />
            <mxPoint x="960" y="290" as="targetPoint" />
          </mxGeometry>
        </mxCell>
        <mxCell id="WQGCRYm0WPpWooz6dVTd-23" value="" style="endArrow=classic;html=1;rounded=0;exitX=0.5;exitY=0;exitDx=0;exitDy=0;entryX=0.5;entryY=1;entryDx=0;entryDy=0;" edge="1" parent="1" source="WQGCRYm0WPpWooz6dVTd-21" target="WQGCRYm0WPpWooz6dVTd-14">
          <mxGeometry width="50" height="50" relative="1" as="geometry">
            <mxPoint x="1060" y="490" as="sourcePoint" />
            <mxPoint x="790" y="410" as="targetPoint" />
          </mxGeometry>
        </mxCell>
        <mxCell id="WQGCRYm0WPpWooz6dVTd-24" value="" style="endArrow=classic;html=1;rounded=0;exitX=0.5;exitY=1;exitDx=0;exitDy=0;entryX=0.5;entryY=0;entryDx=0;entryDy=0;" edge="1" parent="1" source="WQGCRYm0WPpWooz6dVTd-14" target="WQGCRYm0WPpWooz6dVTd-20">
          <mxGeometry width="50" height="50" relative="1" as="geometry">
            <mxPoint x="890" y="490" as="sourcePoint" />
            <mxPoint x="990" y="410" as="targetPoint" />
          </mxGeometry>
        </mxCell>
        <mxCell id="WQGCRYm0WPpWooz6dVTd-26" value="A1 buffer" style="rounded=0;whiteSpace=wrap;html=1;fillColor=#ffe6cc;strokeColor=#d79b00;" vertex="1" parent="1">
          <mxGeometry x="160" y="760" width="120" height="40" as="geometry" />
        </mxCell>
        <mxCell id="WQGCRYm0WPpWooz6dVTd-27" value="B1 buffer" style="rounded=0;whiteSpace=wrap;html=1;fillColor=#f8cecc;strokeColor=#b85450;" vertex="1" parent="1">
          <mxGeometry x="160" y="800" width="120" height="40" as="geometry" />
        </mxCell>
        <mxCell id="WQGCRYm0WPpWooz6dVTd-28" value="C1 buffer" style="rounded=0;whiteSpace=wrap;html=1;fillColor=#ffe6cc;strokeColor=#d79b00;" vertex="1" parent="1">
          <mxGeometry x="160" y="840" width="120" height="40" as="geometry" />
        </mxCell>
        <mxCell id="WQGCRYm0WPpWooz6dVTd-32" value="A2 buffer" style="rounded=0;whiteSpace=wrap;html=1;fillColor=#e1d5e7;strokeColor=#9673a6;" vertex="1" parent="1">
          <mxGeometry x="280" y="760" width="120" height="40" as="geometry" />
        </mxCell>
        <mxCell id="WQGCRYm0WPpWooz6dVTd-33" value="B2 buffer" style="rounded=0;whiteSpace=wrap;html=1;fillColor=#e1d5e7;strokeColor=#9673a6;" vertex="1" parent="1">
          <mxGeometry x="280" y="800" width="120" height="40" as="geometry" />
        </mxCell>
        <mxCell id="WQGCRYm0WPpWooz6dVTd-34" value="C2 buffer" style="rounded=0;whiteSpace=wrap;html=1;fillColor=#e1d5e7;strokeColor=#9673a6;" vertex="1" parent="1">
          <mxGeometry x="280" y="840" width="120" height="40" as="geometry" />
        </mxCell>
        <mxCell id="WQGCRYm0WPpWooz6dVTd-38" value="A1 buffer" style="rounded=0;whiteSpace=wrap;html=1;fillColor=#e1d5e7;strokeColor=#9673a6;" vertex="1" parent="1">
          <mxGeometry x="160" y="600" width="120" height="40" as="geometry" />
        </mxCell>
        <mxCell id="WQGCRYm0WPpWooz6dVTd-39" value="B1 buffer" style="rounded=0;whiteSpace=wrap;html=1;fillColor=#e1d5e7;strokeColor=#9673a6;" vertex="1" parent="1">
          <mxGeometry x="160" y="640" width="120" height="40" as="geometry" />
        </mxCell>
        <mxCell id="WQGCRYm0WPpWooz6dVTd-40" value="C1 buffer" style="rounded=0;whiteSpace=wrap;html=1;fillColor=#e1d5e7;strokeColor=#9673a6;" vertex="1" parent="1">
          <mxGeometry x="160" y="680" width="120" height="40" as="geometry" />
        </mxCell>
        <mxCell id="WQGCRYm0WPpWooz6dVTd-41" value="A2 buffer" style="rounded=0;whiteSpace=wrap;html=1;fillColor=#ffe6cc;strokeColor=#d79b00;" vertex="1" parent="1">
          <mxGeometry x="280" y="600" width="120" height="40" as="geometry" />
        </mxCell>
        <mxCell id="WQGCRYm0WPpWooz6dVTd-42" value="B2 buffer" style="rounded=0;whiteSpace=wrap;html=1;fillColor=#f8cecc;strokeColor=#b85450;" vertex="1" parent="1">
          <mxGeometry x="280" y="640" width="120" height="40" as="geometry" />
        </mxCell>
        <mxCell id="WQGCRYm0WPpWooz6dVTd-43" value="C2 buffer" style="rounded=0;whiteSpace=wrap;html=1;fillColor=#ffe6cc;strokeColor=#d79b00;" vertex="1" parent="1">
          <mxGeometry x="280" y="680" width="120" height="40" as="geometry" />
        </mxCell>
        <mxCell id="WQGCRYm0WPpWooz6dVTd-47" value="" style="endArrow=none;dashed=1;html=1;rounded=0;" edge="1" parent="1">
          <mxGeometry width="50" height="50" relative="1" as="geometry">
            <mxPoint x="120" y="740" as="sourcePoint" />
            <mxPoint x="560" y="740" as="targetPoint" />
          </mxGeometry>
        </mxCell>
        <mxCell id="WQGCRYm0WPpWooz6dVTd-48" value="A1 buffer" style="rounded=0;whiteSpace=wrap;html=1;fillColor=#e1d5e7;strokeColor=#9673a6;" vertex="1" parent="1">
          <mxGeometry x="160" y="920" width="120" height="40" as="geometry" />
        </mxCell>
        <mxCell id="WQGCRYm0WPpWooz6dVTd-49" value="B1 buffer" style="rounded=0;whiteSpace=wrap;html=1;fillColor=#e1d5e7;strokeColor=#9673a6;" vertex="1" parent="1">
          <mxGeometry x="160" y="960" width="120" height="40" as="geometry" />
        </mxCell>
        <mxCell id="WQGCRYm0WPpWooz6dVTd-50" value="C1 buffer" style="rounded=0;whiteSpace=wrap;html=1;fillColor=#e1d5e7;strokeColor=#9673a6;" vertex="1" parent="1">
          <mxGeometry x="160" y="1000" width="120" height="40" as="geometry" />
        </mxCell>
        <mxCell id="WQGCRYm0WPpWooz6dVTd-51" value="A2 buffer" style="rounded=0;whiteSpace=wrap;html=1;fillColor=#ffe6cc;strokeColor=#d79b00;" vertex="1" parent="1">
          <mxGeometry x="280" y="920" width="120" height="40" as="geometry" />
        </mxCell>
        <mxCell id="WQGCRYm0WPpWooz6dVTd-52" value="B2 buffer" style="rounded=0;whiteSpace=wrap;html=1;fillColor=#f8cecc;strokeColor=#b85450;" vertex="1" parent="1">
          <mxGeometry x="280" y="960" width="120" height="40" as="geometry" />
        </mxCell>
        <mxCell id="WQGCRYm0WPpWooz6dVTd-53" value="C2 buffer" style="rounded=0;whiteSpace=wrap;html=1;fillColor=#ffe6cc;strokeColor=#d79b00;" vertex="1" parent="1">
          <mxGeometry x="280" y="1000" width="120" height="40" as="geometry" />
        </mxCell>
        <mxCell id="WQGCRYm0WPpWooz6dVTd-57" value="" style="endArrow=none;dashed=1;html=1;rounded=0;" edge="1" parent="1">
          <mxGeometry width="50" height="50" relative="1" as="geometry">
            <mxPoint x="120" y="900" as="sourcePoint" />
            <mxPoint x="560" y="900" as="targetPoint" />
          </mxGeometry>
        </mxCell>
        <mxCell id="WQGCRYm0WPpWooz6dVTd-58" value="A1 buffer" style="rounded=0;whiteSpace=wrap;html=1;fillColor=#ffe6cc;strokeColor=#d79b00;" vertex="1" parent="1">
          <mxGeometry x="760" y="760" width="120" height="40" as="geometry" />
        </mxCell>
        <mxCell id="WQGCRYm0WPpWooz6dVTd-59" value="B1 buffer" style="rounded=0;whiteSpace=wrap;html=1;fillColor=#ffe6cc;strokeColor=#d79b00;" vertex="1" parent="1">
          <mxGeometry x="760" y="800" width="120" height="40" as="geometry" />
        </mxCell>
        <mxCell id="WQGCRYm0WPpWooz6dVTd-61" value="A2 buffer" style="rounded=0;whiteSpace=wrap;html=1;fillColor=#e1d5e7;strokeColor=#9673a6;" vertex="1" parent="1">
          <mxGeometry x="880" y="760" width="120" height="40" as="geometry" />
        </mxCell>
        <mxCell id="WQGCRYm0WPpWooz6dVTd-62" value="B2 buffer" style="rounded=0;whiteSpace=wrap;html=1;fillColor=#e1d5e7;strokeColor=#9673a6;" vertex="1" parent="1">
          <mxGeometry x="880" y="800" width="120" height="40" as="geometry" />
        </mxCell>
        <mxCell id="WQGCRYm0WPpWooz6dVTd-64" value="A3 buffer" style="rounded=0;whiteSpace=wrap;html=1;fillColor=#dae8fc;strokeColor=#6c8ebf;" vertex="1" parent="1">
          <mxGeometry x="1000" y="760" width="120" height="40" as="geometry" />
        </mxCell>
        <mxCell id="WQGCRYm0WPpWooz6dVTd-65" value="B3 buffer" style="rounded=0;whiteSpace=wrap;html=1;fillColor=#f8cecc;strokeColor=#b85450;" vertex="1" parent="1">
          <mxGeometry x="1000" y="800" width="120" height="40" as="geometry" />
        </mxCell>
        <mxCell id="WQGCRYm0WPpWooz6dVTd-67" value="A1 buffer" style="rounded=0;whiteSpace=wrap;html=1;fillColor=#e1d5e7;strokeColor=#9673a6;" vertex="1" parent="1">
          <mxGeometry x="760" y="600" width="120" height="40" as="geometry" />
        </mxCell>
        <mxCell id="WQGCRYm0WPpWooz6dVTd-68" value="B1 buffer" style="rounded=0;whiteSpace=wrap;html=1;fillColor=#e1d5e7;strokeColor=#9673a6;" vertex="1" parent="1">
          <mxGeometry x="760" y="640" width="120" height="40" as="geometry" />
        </mxCell>
        <mxCell id="WQGCRYm0WPpWooz6dVTd-70" value="A2 buffer" style="rounded=0;whiteSpace=wrap;html=1;fillColor=#ffe6cc;strokeColor=#d79b00;" vertex="1" parent="1">
          <mxGeometry x="880" y="600" width="120" height="40" as="geometry" />
        </mxCell>
        <mxCell id="WQGCRYm0WPpWooz6dVTd-71" value="B2 buffer" style="rounded=0;whiteSpace=wrap;html=1;fillColor=#ffe6cc;strokeColor=#d79b00;" vertex="1" parent="1">
          <mxGeometry x="880" y="640" width="120" height="40" as="geometry" />
        </mxCell>
        <mxCell id="WQGCRYm0WPpWooz6dVTd-73" value="A3 buffer" style="rounded=0;whiteSpace=wrap;html=1;fillColor=#dae8fc;strokeColor=#6c8ebf;" vertex="1" parent="1">
          <mxGeometry x="1000" y="600" width="120" height="40" as="geometry" />
        </mxCell>
        <mxCell id="WQGCRYm0WPpWooz6dVTd-74" value="B3 buffer" style="rounded=0;whiteSpace=wrap;html=1;fillColor=#f8cecc;strokeColor=#b85450;" vertex="1" parent="1">
          <mxGeometry x="1000" y="640" width="120" height="40" as="geometry" />
        </mxCell>
        <mxCell id="WQGCRYm0WPpWooz6dVTd-76" value="" style="endArrow=none;dashed=1;html=1;rounded=0;" edge="1" parent="1">
          <mxGeometry width="50" height="50" relative="1" as="geometry">
            <mxPoint x="720" y="740" as="sourcePoint" />
            <mxPoint x="1160" y="740" as="targetPoint" />
          </mxGeometry>
        </mxCell>
        <mxCell id="WQGCRYm0WPpWooz6dVTd-77" value="A1 buffer" style="rounded=0;whiteSpace=wrap;html=1;fillColor=#dae8fc;strokeColor=#6c8ebf;" vertex="1" parent="1">
          <mxGeometry x="760" y="920" width="120" height="40" as="geometry" />
        </mxCell>
        <mxCell id="WQGCRYm0WPpWooz6dVTd-78" value="B1 buffer" style="rounded=0;whiteSpace=wrap;html=1;fillColor=#f8cecc;strokeColor=#b85450;" vertex="1" parent="1">
          <mxGeometry x="760" y="960" width="120" height="40" as="geometry" />
        </mxCell>
        <mxCell id="WQGCRYm0WPpWooz6dVTd-80" value="A2 buffer" style="rounded=0;whiteSpace=wrap;html=1;fillColor=#ffe6cc;strokeColor=#d79b00;" vertex="1" parent="1">
          <mxGeometry x="880" y="920" width="120" height="40" as="geometry" />
        </mxCell>
        <mxCell id="WQGCRYm0WPpWooz6dVTd-81" value="B2 buffer" style="rounded=0;whiteSpace=wrap;html=1;fillColor=#ffe6cc;strokeColor=#d79b00;" vertex="1" parent="1">
          <mxGeometry x="880" y="960" width="120" height="40" as="geometry" />
        </mxCell>
        <mxCell id="WQGCRYm0WPpWooz6dVTd-83" value="A3 buffer" style="rounded=0;whiteSpace=wrap;html=1;fillColor=#e1d5e7;strokeColor=#9673a6;" vertex="1" parent="1">
          <mxGeometry x="1000" y="920" width="120" height="40" as="geometry" />
        </mxCell>
        <mxCell id="WQGCRYm0WPpWooz6dVTd-84" value="B3 buffer" style="rounded=0;whiteSpace=wrap;html=1;fillColor=#e1d5e7;strokeColor=#9673a6;" vertex="1" parent="1">
          <mxGeometry x="1000" y="960" width="120" height="40" as="geometry" />
        </mxCell>
        <mxCell id="WQGCRYm0WPpWooz6dVTd-86" value="" style="endArrow=none;dashed=1;html=1;rounded=0;" edge="1" parent="1">
          <mxGeometry width="50" height="50" relative="1" as="geometry">
            <mxPoint x="720" y="900" as="sourcePoint" />
            <mxPoint x="1160" y="900" as="targetPoint" />
          </mxGeometry>
        </mxCell>
      </root>
    </mxGraphModel>
  </diagram>
</mxfile>
